<svg id="e4tDSTJgMvw1" xmlns="http://www.w3.org/2000/svg" xmlns:xlink="http://www.w3.org/1999/xlink" viewBox="0 0 300 300" shape-rendering="geometricPrecision" text-rendering="geometricPrecision" project-id="5cfe5b5968bc4f739cb5e35bccc45cfa" export-id="396d82b725e440c98a862e2c81d7c5dc" cached="false"><path d="M83.14,50c0,2.79-4.34,5-5,7.53s1.94,6.71.59,9-6.21,2.08-8.13,4-1.64,6.76-4,8.13-6.38-1.3-9-.59-4.75,5-7.53,5-5-4.34-7.53-5-6.71,1.94-9,.59-2.08-6.21-4-8.13-6.76-1.64-8.13-4s1.3-6.38.59-9-5-4.75-5-7.53s4.34-5,5-7.53-1.94-6.71-.59-9s6.21-2.08,8.13-4s1.64-6.76,4-8.13s6.38,1.3,9,.59s4.75-5,7.53-5s5,4.34,7.53,5s6.71-1.94,9-.59s2.08,6.21,4,8.13s6.76,1.64,8.13,4-1.3,6.38-.59,9s5,4.74,5,7.53Z" transform="matrix(-5.767536-.105667-1.603476-4.749631 575.119512 331.798855)" fill="#c37dff"/><path d="M83.14,50c0,2.79-4.34,5-5,7.53s1.94,6.71.59,9-6.21,2.08-8.13,4-1.64,6.76-4,8.13-6.38-1.3-9-.59-4.75,5-7.53,5-5-4.34-7.53-5-6.71,1.94-9,.59-2.08-6.21-4-8.13-6.76-1.64-8.13-4s1.3-6.38.59-9-5-4.75-5-7.53s4.34-5,5-7.53-1.94-6.71-.59-9s6.21-2.08,8.13-4s1.64-6.76,4-8.13s6.38,1.3,9,.59s4.75-5,7.53-5s5,4.34,7.53,5s6.71-1.94,9-.59s2.08,6.21,4,8.13s6.76,1.64,8.13,4-1.3,6.38-.59,9s5,4.74,5,7.53Z" transform="matrix(4.696404-3.294481 5.670291 4.006836-278.218789 53.639468)" fill="#c37dff" fill-opacity="0.3"/><path d="M83.14,50c0,2.79-4.34,5-5,7.53s1.94,6.71.59,9-6.21,2.08-8.13,4-1.64,6.76-4,8.13-6.38-1.3-9-.59-4.75,5-7.53,5-5-4.34-7.53-5-6.71,1.94-9,.59-2.08-6.21-4-8.13-6.76-1.64-8.13-4s1.3-6.38.59-9-5-4.75-5-7.53s4.34-5,5-7.53-1.94-6.71-.59-9s6.21-2.08,8.13-4s1.64-6.76,4-8.13s6.38,1.3,9,.59s4.75-5,7.53-5s5,4.34,7.53,5s6.71-1.94,9-.59s2.08,6.21,4,8.13s6.76,1.64,8.13,4-1.3,6.38-.59,9s5,4.74,5,7.53Z" transform="matrix(5.270998-4.874398 6.313771 3.291555-293.883598 137.0955)" fill="#c37dff" fill-opacity="0.5"/></svg>
