<?xml version="1.0" encoding="UTF-8"?>
<svg xmlns="http://www.w3.org/2000/svg" viewBox="0 0 554.08 395.01">
  <g id="e4tDSTJgMvw1" shape-rendering="geometricPrecision" text-rendering="geometricPrecision">
    <path d="M15.4,222.06c-4.47-13.25,17.01-23.29,16.76-35.24s-21.95-32.08-17.83-42.81,32.48-9.22,40.48-18.14-1.38-31.93,10.03-38.19,38.88,6.85,52.85,3.75c13.97-3.1,19.38-23.25,35.41-22.95s35.8,21.14,51.45,24.54,35.59-8.51,50.96-1.85c15.37,6.65,21.95,29.71,36.11,39.04,14.15,9.32,41.62,8.5,53.3,19.86,11.69,11.35,2.73,30.17,11.03,42.68s36.45,23.09,40.91,36.29-17.01,23.29-16.76,35.24,21.95,32.08,17.83,42.81-32.48,9.22-40.48,18.14,1.38,31.93-10.03,38.19c-11.41,6.26-38.88-6.85-52.85-3.75-13.97,3.1-19.38,23.25-35.41,22.95s-35.8-21.14-51.45-24.54-35.59,8.51-50.96,1.85c-15.37-6.65-21.95-29.71-36.11-39.04-14.15-9.32-41.62-8.5-53.3-19.86s-2.73-30.17-11.03-42.68-36.44-23.04-40.91-36.29Z" fill="#096171"/>
    <path d="M395.72,116.61c15.82,11.18,7.97,34.33,19.22,46.64s47.16,20.49,53.8,34.12-17.37,28.79-15.5,42.81,30.63,32.49,27.31,45.75-37.33,15.81-45.61,27.29,6.04,35.68-7.01,44.84-48.09-.92-63.72,4.77-20.51,29.88-38.92,32.01-44.98-18.03-64.89-19.4-41.05,15.7-60.86,10.76c-19.82-4.94-30.07-29.85-48.26-38.01s-50.42-2.56-66.18-13.7-7.97-34.33-19.22-46.64c-11.25-12.31-47.16-20.49-53.8-34.12s17.37-28.79,15.5-42.81S-3.05,178.45.27,165.18s37.33-15.81,45.61-27.29-6.04-35.68,7.01-44.84,48.09.92,63.72-4.77,20.51-29.88,38.92-32.01,44.98,18.03,64.89,19.4,41.05-15.7,60.86-10.76,30.07,29.85,48.26,38.01,50.36,2.52,66.18,13.7Z" fill="rgba(9, 97, 113, .3)"/>
    <path d="M460,32.95c17.62,9.18,8.69,37.61,21.19,49.16s52.59,12.63,59.93,26.75-19.6,37.12-17.6,52.8,34.04,30.24,30.25,46.26-41.84,26.82-51.16,41.93,6.53,39.61-8.12,53.16-53.76,10.09-71.26,20.25-23.12,39.09-43.71,45.81-50.17-10.3-72.41-7.26-45.99,27.55-68.11,26.46-33.43-27.34-53.71-32.5-56.35,8.74-73.9-.41-8.69-37.61-21.19-49.16-52.59-12.63-59.93-26.75,19.6-37.12,17.6-52.8-34.04-30.24-30.25-46.26,41.84-26.82,51.16-41.93-6.53-39.61,8.12-53.16,53.76-10.09,71.26-20.25,23.12-39.09,43.71-45.81,50.17,10.3,72.41,7.26S310.27-1.05,332.39.04s33.43,27.34,53.71,32.5,56.28-8.77,73.9.41Z" fill="rgba(9, 97, 113, .5)"/>
  </g>
</svg>