<?xml version="1.0" encoding="UTF-8"?>
<svg id="Lager_1" data-name="Lager 1" xmlns="http://www.w3.org/2000/svg" viewBox="0 0 48 10">
  <path d="M1.43,7.06c-.09-.72-.03-1.46.14-1.9,0,0,.03-.06.05-.1.03.02.06.03.05.03.36.21.69,1.01.96,1.67.31.73.61,1.52.95,2.11,1.64,2.84,3.55-.27,5.01-2.6.78-1.23,1.24-1.88,2.1-1.99,1-.13,2.01.25,3.01.45,2.1.44,4.2,1.06,6.3,1.28,1.09.12,2.18-.02,3.25-.64.96-.55,1.82-1.37,2.78-1.57.91-.19,1.72.61,2.55,1.61.83,1.01,1.66,2.01,2.58,1.97,1.04-.05,1.98-1.31,2.8-3.05.34-.72.67-1.52,1.04-2.12.07-.11.19-.28.24-.34.1-.12.1-.14.17-.16-.04.01-.1.02.03,0-.04,0-.04-.02.05,0,.05.01.13.05.2.1.65.5,1.02,2.45,1.39,3.9.45,1.74.96,2.96,1.74,2.95,1.01-.02,1.87-1.52,2.63-3.29.29-.66.57-1.36.88-1.92.1-.18.04-.07.02-.03.03-.05.07-.1.1-.15.03-.04.06-.08.09-.12,0,0,.01-.01.02-.02.04-.04.07-.08.11-.11,0,0,0,0,0,0,0,0,0,0,0,0,.04-.02.08-.05.11-.09,0,0,0,0,0,0,0,0,0,0,0,0,.06-.03.12-.06.18-.09,0,0,.16-.04.19-.04,0,0,.05,0,.07,0,.02,0,.06,0,.07,0,.1,0,.19.02.29.05.29.08.6.3.89.6.61.63,1.17,1.74,1.6,3.16.21.72.38,1.52.52,2.39.16,1.03,1.51-.3,1.39-1.07-.59-3.82-1.9-6.15-3.3-6.71-.84-.34-1.7,0-2.5.82-.81.82-1.42,2.35-2.09,3.84-.15.33-.31.66-.47.94,0,.01-.06.09-.06.09-.01.02-.03.04-.05.07-.01,0-.03-.02-.05-.03-.07-.04-.15-.1-.21-.19-.15-.18-.28-.48-.4-.79-.5-1.32-.78-3.19-1.28-4.52-.76-2-1.88-1.58-2.77-.63-.49.52-.94,1.28-1.36,2.16-.37.77-.72,1.65-1.12,2.29-.06.1-.13.2-.2.29.05-.06-.08.06-.11.09-.02.01-.03.02-.04.02,0,0,0,0-.01,0,0,0-.02,0-.03,0-.1.02-.17,0-.28-.02-.41-.11-.81-.52-1.19-.95-.89-.99-1.73-2.21-2.68-2.54-1.09-.38-2.19.29-3.24.98-.95.62-1.88,1.19-2.89,1.22-1.05.03-2.11-.27-3.16-.5-1.1-.23-2.19-.47-3.29-.7-1.06-.22-2.13-.54-3.2-.59-1.14-.05-2.25.44-3.3,1.78-.8,1.01-1.52,2.43-2.31,3.46,0,0-.03.04-.05.06-.04.04-.07.08-.11.12-.04.04-.08.08-.12.12,0,0-.02.02-.02.02,0,0-.07.05-.1.08-.02.01-.05.03-.06.03-.01,0-.02.01-.03.02,0,0-.02,0-.03,0-.02,0-.13.01-.12.02-.32,0-.69-.44-.98-1-.66-1.26-1.23-3.41-2.05-3.82-.51-.25-1.03,0-1.51.49-.36.37-.75.92-1,1.79C.02,6.42-.06,7.26.05,8.13c.12.99,1.49-.18,1.39-1.07ZM42.56,3.16c-.06.08-.03.04,0,0h0ZM39.6,6.96s.02-.01.03-.02c-.01.01-.02.02-.03.02ZM6.13,8.09c.07-.07.03-.03,0,0h0ZM1.59,5.06s0,0,0,0c0,0,0,0,0,0,0,0,0,0,0-.01,0,0,0,0,.01,0-.02.05-.1.15-.02,0ZM1.6,5.04s0,0,0,.01c0,0,0,0,0,0,0,0,0,0,0,0,0,0,0,0,0,0ZM1.59,5.04s0,0,0,0c-.02-.02-.01-.02,0,0ZM1.58,5.05s0,.01,0,0c0,0,0,0,0,0-.04.04-.08-.06-.01,0Z" fill="#85253e"/>
</svg>