<svg xmlns="http://www.w3.org/2000/svg" viewBox="0 0 1440 280">
    <defs>
        <mask id="waveMask">
            <!-- Hela ytan täcks av vitt (synligt) -->
            <rect width="100%" height="100%" fill="white"/>
            <!-- Vågorna blir svarta (osynliga i mask) -->
            <path fill="black" d="M0,128L30,149.3C60,171,120,213,180,213.3C240,213,300,171,360,165.3C420,160,480,192,540,202.7C600,213,660,203,720,186.7C780,171,840,149,900,160C960,171,1020,213,1080,208C1140,203,1200,149,1260,128C1320,107,1380,117,1410,122.7L1440,128L1440,320H0Z"/>
        </mask>
    </defs>
    <!-- Täck hela ytan men maska nederdelen -->
    <rect width="100%" height="100%" fill="white" mask="url(#waveMask)"/>
</svg>
